<svg width="56" height="56" viewBox="0 0 56 56" fill="none" xmlns="http://www.w3.org/2000/svg">
<circle cx="28" cy="28" r="28" fill="#DF7829"/>
<path d="M26 25C26 23.8954 26.8954 23 28 23C29.1046 23 30 23.8954 30 25C30 26.1046 29.1046 27 28 27C26.8954 27 26 26.1046 26 25Z" fill="white"/>
<path fill-rule="evenodd" clip-rule="evenodd" d="M20 25C20 20.5817 23.5817 17 28 17C32.4183 17 36 20.5817 36 25C36 26.5682 35.5488 28.031 34.7691 29.2657L37.8852 34.663C38.0534 34.9544 38.0356 35.3173 37.8396 35.5908C37.6436 35.8643 37.3057 35.9979 36.9757 35.9322L33.9858 35.3377L33.0058 38.2243C32.8976 38.5429 32.613 38.7687 32.2781 38.8017C31.9433 38.8347 31.6201 38.6687 31.4518 38.3773L28.3431 32.9928C28.2293 32.9976 28.1149 33 28 33C27.8851 33 27.7707 32.9976 27.6569 32.9928L24.5482 38.3773C24.3801 38.6684 24.0574 38.8344 23.7228 38.8018C23.3882 38.7692 23.1036 38.5441 22.9948 38.226L22.0098 35.3454L19.0225 35.9326C18.6926 35.9974 18.3554 35.8635 18.1599 35.59C17.9644 35.3166 17.9468 34.9541 18.1148 34.663L21.2309 29.2657C20.4512 28.031 20 26.5682 20 25ZM22.3839 30.6973C23.335 31.635 24.5199 32.3362 25.8431 32.7058L24.0066 35.8867L23.3897 34.0826C23.251 33.677 22.834 33.4362 22.4133 33.5189L20.5425 33.8867L22.3839 30.6973ZM30.1569 32.7058L31.9907 35.882L32.6042 34.0749C32.7425 33.6676 33.1612 33.4259 33.583 33.5098L35.4548 33.882L33.6161 30.6973C32.665 31.635 31.4801 32.3362 30.1569 32.7058ZM28 21.2857C25.9486 21.2857 24.2857 22.9487 24.2857 25C24.2857 27.0513 25.9486 28.7143 28 28.7143C30.0513 28.7143 31.7143 27.0513 31.7143 25C31.7143 22.9487 30.0513 21.2857 28 21.2857Z" fill="white"/>
</svg>
